<?xml version="1.0" encoding="UTF-8" standalone="no"?>
<svg
   xmlns:dc="http://purl.org/dc/elements/1.1/"
   xmlns:cc="http://creativecommons.org/ns#"
   xmlns:rdf="http://www.w3.org/1999/02/22-rdf-syntax-ns#"
   xmlns:svg="http://www.w3.org/2000/svg"
   xmlns="http://www.w3.org/2000/svg"
   xmlns:sodipodi="http://sodipodi.sourceforge.net/DTD/sodipodi-0.dtd"
   xmlns:inkscape="http://www.inkscape.org/namespaces/inkscape"
   inkscape:version="1.0 (4035a4fb49, 2020-05-01)"
   sodipodi:docname="signpost-2-fill.svg"
   id="svg4"
   version="1.1"
   viewBox="0 0 16 16"
   class="bi bi-signpost-2-fill"
   fill="currentColor"
   height="16"
   width="16">
  <metadata
     id="metadata10">
    <rdf:RDF>
      <cc:Work
         rdf:about="">
        <dc:format>image/svg+xml</dc:format>
        <dc:type
           rdf:resource="http://purl.org/dc/dcmitype/StillImage" />
      </cc:Work>
    </rdf:RDF>
  </metadata>
  <defs
     id="defs8" />
  <sodipodi:namedview
     inkscape:current-layer="svg4"
     inkscape:window-maximized="1"
     inkscape:window-y="32"
     inkscape:window-x="-8"
     inkscape:cy="8"
     inkscape:cx="6.4752941"
     inkscape:zoom="53.125"
     showgrid="false"
     id="namedview6"
     inkscape:window-height="1017"
     inkscape:window-width="1920"
     inkscape:pageshadow="2"
     inkscape:pageopacity="0"
     guidetolerance="10"
     gridtolerance="10"
     objecttolerance="10"
     borderopacity="1"
     bordercolor="#666666"
     pagecolor="#ffffff" />
  <path
     style="fill:#64c3bf;fill-opacity:1"
     id="path2"
     d="M7.293.707A1 1 0 0 0 7 1.414V2H2a1 1 0 0 0-1 1v2a1 1 0 0 0 1 1h5v1H2.5a1 1 0 0 0-.8.4L.725 8.7a.5.5 0 0 0 0 .6l.975 1.3a1 1 0 0 0 .8.4H7v5h2v-5h5a1 1 0 0 0 1-1V8a1 1 0 0 0-1-1H9V6h4.5a1 1 0 0 0 .8-.4l.975-1.3a.5.5 0 0 0 0-.6L14.3 2.4a1 1 0 0 0-.8-.4H9v-.586A1 1 0 0 0 7.293.707z" />
</svg>
